<svg version="1" xmlns="http://www.w3.org/2000/svg" width="533.333" height="533.333" viewBox="0 0 400.000000 400.000000"><path d="M111.5 66.6c-19.8 3-33.6 10-43.8 22.4-6 7.1-12.4 21.2-15.4 33.5l-2.7 11-.3 67.1c-.4 65.2-.3 67.4 1.7 77.5 5.9 29 20.4 45.5 46.7 53.1 10.4 3 36.1 3.3 46.3.5 21.6-6 36.6-20.5 43.8-42.4 5-15.3 5.4-21.1 4.9-89.8-.3-60.2-.5-64.6-2.4-73.6-8.3-38.1-30-57.6-66.3-59.3-5.2-.2-10.8-.2-12.5 0zm15.3 29.5c9.5 2 17.4 12 20.2 25.4.7 3.3 1 31.2.8 83.5-.3 77.8-.3 78.5-2.4 83.1-2.9 6.2-9 12.8-13.9 15-5.4 2.5-16.6 2.5-22 0-5.4-2.5-9.8-7.4-13.2-14.6l-2.8-6v-159l2.3-7.2c5.1-16.4 16-23.5 31-20.2zM266.3 70c-3.8 1.6-5 5.1-8.3 24-11.7 68.6-37 204.5-38.5 207-.3.4-2 1.1-3.9 1.4-5.9 1.1-7.1 3.5-7.1 14.2 0 8.4.2 9.6 2.3 11.6 2.2 2.2 2.7 2.3 23.2 2.3s21-.1 23.2-2.3c2.1-2 2.3-3.2 2.3-11.6 0-10.9-1.3-13.2-7.7-14.2-2.9-.5-3.7-1.1-3.4-2.3.2-.9 1-5.3 1.6-9.8l1.2-8.3h20.9c23.8 0 20.8-1.4 22.9 10.4 1.5 9.1 1.5 9.3-2.8 10-6.4 1-7.7 3.3-7.7 14.2 0 8.4.2 9.6 2.3 11.6 2.2 2.3 2.4 2.3 31.2 2.3s29 0 31.2-2.3c1.9-1.9 2.3-3.5 2.7-10.3.5-11.5-2.1-15.9-9.4-15.9-2.1 0-2.5-.8-4.9-10.8C324.4 235.7 309 157.1 300 99.1c-3.2-21.2-4.2-25.8-6-27.5-1.8-1.9-3.4-2.1-13.8-2.3-6.4-.2-12.7.2-13.9.7zm14.6 137.2c4 23.8 7.5 44.1 7.7 45 .5 1.7-.7 1.8-16 1.8-9.1 0-16.6-.1-16.6-.3 0-.2 3.2-17.6 7.1-38.8 3.9-21.1 7.5-41.2 8.1-44.7.6-3.4 1.4-6.2 1.7-6.2.4 0 4 19.5 8 43.2z"/></svg>