<svg xmlns="http://www.w3.org/2000/svg" viewBox="0 0 295 69">
  <path d="M20.32,65.49A19.3,19.3,0,0,1,13,64.25a12.39,12.39,0,0,1-4.93-3.52,14.2,14.2,0,0,1-2.76-5.45,27.08,27.08,0,0,1-.86-7.11v-23a38.27,38.27,0,0,1,.76-7.8A18.27,18.27,0,0,1,7.73,11a12.55,12.55,0,0,1,4.66-4.24,15.06,15.06,0,0,1,7.18-1.55A16,16,0,0,1,27,6.74,12.69,12.69,0,0,1,31.77,11a17.88,17.88,0,0,1,2.55,6.31,38.23,38.23,0,0,1,.76,7.83v23a26.15,26.15,0,0,1-.9,7.11,15.21,15.21,0,0,1-2.73,5.45,12.16,12.16,0,0,1-4.62,3.52A15.93,15.93,0,0,1,20.32,65.49Zm-.48-2.9A7.67,7.67,0,0,0,26,59.76a11.08,11.08,0,0,0,2.35-7.31V19.95a15.08,15.08,0,0,0-2.21-8.62,7.22,7.22,0,0,0-6.35-3.24,7.37,7.37,0,0,0-6.49,3.21q-2.21,3.21-2.21,8.66v32.5a11,11,0,0,0,2.35,7.35A7.85,7.85,0,0,0,19.84,62.59Z"/>
  <path d="M83.31,64.66H71v-2.9h.76q2.28,0,2.28-1.24a19.4,19.4,0,0,0-.34-2.9q-.35-2-.69-4.62H59.37l-1,6.69a1.4,1.4,0,0,0-.07.45v.45a.91.91,0,0,0,.72,1,8.87,8.87,0,0,0,2.24.21v2.9H52.75v-2.9h.76q1.45,0,2.07-1.93Q58.34,46,60.82,32.44T65.51,5.8h4.55q1.31,9.66,3.48,21.36t5.28,25.63q.48,2.41,1.66,7a5.83,5.83,0,0,0,.41,1.07,1.62,1.62,0,0,0,.52.59,1.57,1.57,0,0,0,.76.24c.3,0,.68,0,1.14,0ZM72.55,50.17q-.21-1.17-.66-3.93T70.83,40q-.62-3.52-1.28-7.49T68.27,25l-1.1-6.24q-.48-2.73-.69-3.83-.14.62-.66,3.24T64.62,24.4l-1.48,7.8q-.79,4.18-1.45,7.87t-1.17,6.49q-.52,2.79-.66,3.62Z"/>
  <path d="M126.58,53H114.23V50.1h1a1.92,1.92,0,0,0,1.17-.31,2.42,2.42,0,0,0,.62-1.48,23.83,23.83,0,0,0,.24-3.48q0-2.31,0-6.31,0-2.9-.1-5.45a25.35,25.35,0,0,0-.52-4.42,6.81,6.81,0,0,0-1.31-2.93,3.58,3.58,0,0,0-5.83,1.07,17.65,17.65,0,0,0-.79,5.93v13a7.35,7.35,0,0,0,.55,3.38q.55,1,2.55,1V53H100.43V50.1h.76q2.07,0,2.07-1.93,0-8.49-.07-13.11t-.07-5.45a7.28,7.28,0,0,0-.76-3.73,3.2,3.2,0,0,0-3-1.24,3.31,3.31,0,0,0-2.45.93,5.92,5.92,0,0,0-1.41,2.48,16.79,16.79,0,0,0-.66,3.55q-.17,2-.17,4.07,0,5,0,7.87t.17,4.35a3.52,3.52,0,0,0,.52,1.86,1.29,1.29,0,0,0,1,.41,6.19,6.19,0,0,0,.62,0q.34,0,.83,0V53H85.59V50.1h.9a1.76,1.76,0,0,0,1.86-1.55,24.63,24.63,0,0,0,.35-4.86q0-6.42,0-10.56t-.24-6a2.5,2.5,0,0,0-.55-1.59,4.62,4.62,0,0,0-2.35-.35v-2.9q1.86.07,3,.21a5.7,5.7,0,0,1,1.83.48,4.27,4.27,0,0,1,1.21.9,12.92,12.92,0,0,1,1.14,1.45,7.51,7.51,0,0,1,6.62-3.52A7.43,7.43,0,0,1,106.5,26q2.28-4.21,6.35-4.21,5,0,7.9,2.24t2.86,7.56v7.8q0,1.66-.1,3.28t-.1,3.07a6.94,6.94,0,0,0,.59,3.42q.59.93,2.59.93Z"/>
  <path d="M149.62,45.69q-2.42,7.8-9.66,7.8a8.7,8.7,0,0,1-4.48-1.17A11.46,11.46,0,0,1,132,49.17a15,15,0,0,1-2.24-4.59,18.7,18.7,0,0,1-.79-5.45V35.27a16.27,16.27,0,0,1,.83-5.18,14,14,0,0,1,2.31-4.35,12,12,0,0,1,3.48-3A8.64,8.64,0,0,1,140,21.6a9.53,9.53,0,0,1,6.93,2.45,9.14,9.14,0,0,1,2.52,6.87,5.26,5.26,0,0,1-.21,1.52,3,3,0,0,1-.79,1.28,7.9,7.9,0,0,1-1.59,1.17,27.94,27.94,0,0,1-2.52,1.28L135.62,40V45.2A5.86,5.86,0,0,0,136.89,49,3.82,3.82,0,0,0,140,50.58a8.58,8.58,0,0,0,2.45-.38,10.45,10.45,0,0,0,2.38-1,8.55,8.55,0,0,0,1.93-1.55,5.34,5.34,0,0,0,1.17-1.93ZM145.41,30.3q0-5.8-5.45-5.8a3.51,3.51,0,0,0-1.76.45,4.59,4.59,0,0,0-1.38,1.21,5.6,5.6,0,0,0-.9,1.72,6.5,6.5,0,0,0-.31,2v6.69l7.8-3.17A3.07,3.07,0,0,0,145.41,30.3Z"/>
  <path d="M180.12,53H167.77V50.1h1q1.45,0,1.72-1.07a19.23,19.23,0,0,0,.28-4q0-3.11.07-5.66t.07-4.76a26.28,26.28,0,0,0-.79-7.42,3.51,3.51,0,0,0-3.76-2.52,4.66,4.66,0,0,0-2.35.52,3.37,3.37,0,0,0-1.38,1.55,8.18,8.18,0,0,0-.66,2.52,29.87,29.87,0,0,0-.17,3.42V45.48q0,1.45,0,2.35a3,3,0,0,0,.35,1.41,1.5,1.5,0,0,0,.9.69,6.66,6.66,0,0,0,1.76.17V53H152.45V50.1h1a1.69,1.69,0,0,0,1.79-1.45,20.28,20.28,0,0,0,.35-4.35q0-4.35,0-7.73t0-5.38q0-2-.1-3.17a4.61,4.61,0,0,0-.45-1.79,1.7,1.7,0,0,0-1-.83,5.39,5.39,0,0,0-1.66-.21v-2.9q1.86.07,3,.21a6.94,6.94,0,0,1,1.86.45,3.15,3.15,0,0,1,1.21.9,13.72,13.72,0,0,1,1,1.48,6.33,6.33,0,0,1,2.76-2.62,8.68,8.68,0,0,1,3.93-.9,13,13,0,0,1,6,1.14A7.86,7.86,0,0,1,175.5,26a11.37,11.37,0,0,1,1.38,4.42,47.45,47.45,0,0,1,.28,5.17q0,2.9,0,4.86t0,3.38q0,1.42,0,2.42t0,1.9c0,.83.17,1.36.52,1.59a4.88,4.88,0,0,0,2.31.35Z"/>
  <path d="M196.82,8.63q-.21-2-2-2h-.28a4.25,4.25,0,0,0-.62.07V3.8h9.52V6.56q0,.69,0,3.17t-.07,6q0,3.48-.07,7.49t0,7.8q0,5.11.07,9.69t.34,7.49a2.73,2.73,0,0,0,.55,1.59,2.26,2.26,0,0,0,1.59.41h.38a.86.86,0,0,0,.38-.07V53q-1.86-.07-3-.21a6.91,6.91,0,0,1-1.86-.45,3.3,3.3,0,0,1-1.21-.86,9.43,9.43,0,0,1-1-1.52,10.42,10.42,0,0,1-3,2.52,7.44,7.44,0,0,1-3.66,1,8.59,8.59,0,0,1-4.38-1.14,11.57,11.57,0,0,1-3.42-3A14.38,14.38,0,0,1,182.71,45a16.56,16.56,0,0,1-.79-5.14V35.27a15.93,15.93,0,0,1,.83-5.14A15.05,15.05,0,0,1,185,25.78a11.58,11.58,0,0,1,3.42-3,8.45,8.45,0,0,1,4.31-1.14q2.76,0,4.76,2.9-.07-1-.07-2.69t-.07-3.73q-.07-2.07-.17-4.48T196.82,8.63ZM197,29.88a6.53,6.53,0,0,0-.31-2,6.07,6.07,0,0,0-.86-1.72A4.24,4.24,0,0,0,194.51,25a3.52,3.52,0,0,0-1.76-.45A3.33,3.33,0,0,0,191,25a4.35,4.35,0,0,0-1.31,1.21,6,6,0,0,0-.86,1.72,6.5,6.5,0,0,0-.31,2V45.2A6.2,6.2,0,0,0,189.71,49a3.61,3.61,0,0,0,3,1.59,3.69,3.69,0,0,0,3-1.66A6.05,6.05,0,0,0,197,45.2Z"/>
  <path d="M219.11,21.6a8.51,8.51,0,0,1,4.28,1.14,11.82,11.82,0,0,1,3.48,3,15.23,15.23,0,0,1,2.35,4.35,15.39,15.39,0,0,1,.86,5.14v4.55a15.38,15.38,0,0,1-.86,5.14,15.2,15.2,0,0,1-2.35,4.35,11.82,11.82,0,0,1-3.48,3,8.52,8.52,0,0,1-4.28,1.14,8.64,8.64,0,0,1-4.35-1.14,12,12,0,0,1-3.48-3A14,14,0,0,1,209,45a16.26,16.26,0,0,1-.83-5.18V35.27a16.27,16.27,0,0,1,.83-5.18,14,14,0,0,1,2.31-4.35,12,12,0,0,1,3.48-3A8.64,8.64,0,0,1,219.11,21.6Zm0,2.9a3.51,3.51,0,0,0-1.76.45A4.58,4.58,0,0,0,216,26.16a5.59,5.59,0,0,0-.9,1.72,6.5,6.5,0,0,0-.31,2V45.2A5.86,5.86,0,0,0,216,49a3.82,3.82,0,0,0,3.07,1.59,3.69,3.69,0,0,0,3-1.66,6.05,6.05,0,0,0,1.24-3.73V29.88a6.5,6.5,0,0,0-.31-2,6.09,6.09,0,0,0-.86-1.72A4.24,4.24,0,0,0,220.87,25,3.52,3.52,0,0,0,219.11,24.5Z"/>
  <path d="M244.29,53H232V50.1h1a1.57,1.57,0,0,0,1.31-.62A5.39,5.39,0,0,0,235,47q.21-1.86.28-5.38t.07-9.32a18,18,0,0,0-.55-5A3,3,0,0,0,232,25.19v-2.9h9.52q0,3.45-.07,6.31t-.14,5q-.07,2.14-.14,3.38c0,.83-.07,1.27-.07,1.31q0,3.52.1,5.8a21.09,21.09,0,0,0,.41,3.62,3.23,3.23,0,0,0,1,1.86,2.64,2.64,0,0,0,1.69.52ZM237.94,5.6A3.66,3.66,0,0,1,240.84,7,4.76,4.76,0,0,1,242,10.15a4.85,4.85,0,0,1-1.17,3.24,3.66,3.66,0,0,1-2.9,1.38,3.72,3.72,0,0,1-3-1.38,4.84,4.84,0,0,1-1.17-3.24A4.75,4.75,0,0,1,235,7,3.73,3.73,0,0,1,237.94,5.6Z"/>
  <path d="M286.93,53H274.58V50.1h1a1.92,1.92,0,0,0,1.17-.31,2.41,2.41,0,0,0,.62-1.48,23.8,23.8,0,0,0,.24-3.48q0-2.31,0-6.31,0-2.9-.1-5.45a25.35,25.35,0,0,0-.52-4.42,6.82,6.82,0,0,0-1.31-2.93,3.58,3.58,0,0,0-5.83,1.07,17.65,17.65,0,0,0-.79,5.93v13a7.34,7.34,0,0,0,.55,3.38q.55,1,2.55,1V53H260.78V50.1h.76q2.07,0,2.07-1.93,0-8.49-.07-13.11t-.07-5.45a7.28,7.28,0,0,0-.76-3.73,3.2,3.2,0,0,0-3-1.24,3.31,3.31,0,0,0-2.45.93,5.92,5.92,0,0,0-1.42,2.48,16.82,16.82,0,0,0-.66,3.55q-.17,2-.17,4.07,0,5,0,7.87t.17,4.35a3.52,3.52,0,0,0,.52,1.86,1.29,1.29,0,0,0,1,.41,6.18,6.18,0,0,0,.62,0q.34,0,.83,0V53H245.95V50.1h.9a1.76,1.76,0,0,0,1.86-1.55,24.68,24.68,0,0,0,.34-4.86q0-6.42,0-10.56t-.24-6a2.5,2.5,0,0,0-.55-1.59,4.63,4.63,0,0,0-2.35-.35v-2.9q1.86.07,3,.21a5.7,5.7,0,0,1,1.83.48,4.29,4.29,0,0,1,1.21.9,12.87,12.87,0,0,1,1.14,1.45,7.51,7.51,0,0,1,6.62-3.52A7.43,7.43,0,0,1,266.85,26q2.28-4.21,6.35-4.21,5,0,7.9,2.24T284,31.61v7.8q0,1.66-.1,3.28t-.1,3.07a6.94,6.94,0,0,0,.59,3.42q.59.93,2.59.93Z"/>
</svg>